<svg width="510" height="510" viewBox="0 0 510 510" fill="none" xmlns="http://www.w3.org/2000/svg">
<path d="M255 0C114.39 0 0 114.39 0 255C0 395.61 114.39 510 255 510C395.61 510 510 395.61 510 255C510 114.39 395.61 0 255 0ZM255 490.06C125.39 490.06 19.94 384.61 19.94 255C19.94 125.39 125.39 19.94 255 19.94C384.61 19.94 490.06 125.39 490.06 255C490.06 384.61 384.61 490.06 255 490.06Z" fill="#0068FF"/>
<path d="M430.53 236.12C433.55 231.52 432.26 225.33 427.66 222.31C423.06 219.29 416.87 220.57 413.85 225.18L384.53 269.9L384.48 269.87L347.88 325.76C342.2 334.44 341.2 345.23 344.98 354.73H295.18C297.24 349.12 299.91 343.72 303.24 338.66L411.26 173.92C414.28 169.32 412.99 163.13 408.39 160.11C403.79 157.09 397.6 158.37 394.58 162.98L286.56 327.72C276.01 343.81 270.43 362.5 270.43 381.77V390.34C270.43 421.44 295.73 446.74 326.83 446.74H345.26C350.77 446.74 355.23 442.28 355.23 436.77C355.23 431.26 350.76 426.8 345.26 426.8H326.83C306.73 426.8 290.37 410.44 290.37 390.34V381.77C290.37 379.39 290.51 377.03 290.73 374.68H397.15C402.66 374.68 407.12 370.22 407.12 364.71C407.12 359.2 402.65 354.74 397.15 354.74H374.32C369.97 354.74 366.13 352.45 364.06 348.62C361.99 344.79 362.18 340.34 364.56 336.7L376.39 318.63C382.04 326.19 390.95 330.76 400.57 330.76H412.28C417.79 330.76 422.25 326.3 422.25 320.79C422.25 315.28 417.78 310.82 412.28 310.82H400.57C395.04 310.82 392.41 307.05 391.53 305.43C390.65 303.81 388.95 299.54 391.98 294.92L430.52 236.14L430.53 236.12Z" fill="#0068FF"/>
<path d="M117.76 162.98C114.74 158.37 108.56 157.09 103.95 160.11C99.3499 163.13 98.0599 169.31 101.08 173.92L209.1 338.66C212.42 343.73 215.1 349.12 217.15 354.73H167.36C171.14 345.24 170.14 334.44 164.46 325.76L127.85 269.87C127.75 269.71 127.61 269.59 127.5 269.44L98.4799 225.19C95.4599 220.58 89.2799 219.3 84.6699 222.32C80.0699 225.34 78.7799 231.52 81.7999 236.13L120.34 294.91C123.37 299.53 121.66 303.8 120.79 305.42C119.92 307.04 117.28 310.81 111.76 310.81H100.05C94.5399 310.81 90.0799 315.27 90.0799 320.78C90.0799 326.29 94.5499 330.75 100.05 330.75H111.76C121.38 330.75 130.29 326.19 135.94 318.62L147.77 336.69C150.15 340.33 150.34 344.79 148.27 348.61C146.2 352.44 142.37 354.73 138.01 354.73H115.18C109.67 354.73 105.21 359.19 105.21 364.7C105.21 370.21 109.68 374.67 115.18 374.67H221.6C221.81 377.02 221.96 379.38 221.96 381.76V390.33C221.96 410.43 205.61 426.79 185.5 426.79H167.07C161.56 426.79 157.1 431.25 157.1 436.76C157.1 442.27 161.57 446.73 167.07 446.73H185.5C216.6 446.73 241.9 421.43 241.9 390.33V381.76C241.9 362.5 236.32 343.81 225.77 327.72L117.75 162.98H117.76Z" fill="#0068FF"/>
<path d="M299.36 266.7L320.93 233.79L332.87 215.61L386.21 134.27C389.23 129.65 387.92 123.47 383.33 120.45C378.72 117.43 372.53 118.71 369.51 123.33L320.93 197.41L301.61 167.92L346.09 100.08C349.11 95.4599 347.83 89.2799 343.24 86.2599C338.62 83.2399 332.44 84.5199 329.42 89.1399L289.67 149.74L268.1 116.83L290.3 82.9799C293.32 78.3599 292.04 72.1799 287.42 69.1599C282.83 66.1399 276.62 67.4199 273.6 72.0399L256.16 98.6199L238.72 72.0399C235.7 67.4199 229.55 66.1399 224.93 69.1599C220.31 72.1799 219.03 78.3599 222.05 82.9799L244.25 116.83L222.65 149.74L182.93 89.1399C179.91 84.5199 173.73 83.2399 169.11 86.2599C164.49 89.2799 163.21 95.4599 166.23 100.08L210.71 167.92L191.39 197.41L142.84 123.33C139.82 118.71 133.64 117.43 129.02 120.45C124.41 123.47 123.12 129.65 126.14 134.27L179.48 215.59L191.39 233.8L212.99 266.71L224.9 284.92L244.25 314.38L256.16 332.59L268.1 314.38L287.42 284.92L299.36 266.71V266.7ZM309.01 215.59L287.41 248.53L268.09 219.04L289.66 186.13L309 215.59H309.01ZM256.19 135.01L277.76 167.92L256.16 200.86L234.59 167.95L256.19 135.01ZM203.34 215.59L222.66 186.13L244.26 219.04L224.91 248.5L203.34 215.59ZM256.19 296.19L236.84 266.7L256.16 237.24L275.51 266.7L256.19 296.19Z" fill="#0068FF"/>
</svg>
